<svg xmlns="http://www.w3.org/2000/svg" viewBox="0 0 512 512">
  <!-- Quiz icons created by Freepik - Flaticon (https://www.flaticon.com/free-icons/quiz) -->
  <defs>
    <linearGradient id="grad" x1="0%" y1="0%" x2="100%" y2="100%">
      <stop offset="0%" style="stop-color:#8e2de2;stop-opacity:1" />
      <stop offset="100%" style="stop-color:#4a00e0;stop-opacity:1" />
    </linearGradient>
  </defs>
  <rect width="512" height="512" rx="112" fill="url(#grad)" />
  <path d="M256 128C194.2 128 144 178.2 144 240c0 42.4 23.4 80 58.7 101.5l-19.1 57.3c-2.3 7 3.8 13.9 10.9 12.5l68.7-13.7c26.7 8.3 54.8 10.4 82.5 5.5 54-9.6 96.6-53.7 104.9-108.3C461 224.2 405.8 128 256 128z" fill="#ffffff" />
  <path d="M256 320c-13.3 0-24 10.7-24 24s10.7 24 24 24 24-10.7 24-24-10.7-24-24-24zm0-144c-35.3 0-64 28.7-64 64 0 13.3 10.7 24 24 24s24-10.7 24-24c0-8.8 7.2-16 16-16s16 7.2 16 16c0 17.7-14.3 32-32 32-13.3 0-24 10.7-24 24v8c0 13.3 10.7 24 24 24s24-10.7 24-24v-1.7c31.3-10.5 52-40.4 52-74.3 0-35.3-28.7-64-64-64z" fill="url(#grad)" />
</svg>
